# xmcd CD database file
#
# Track frame offsets:
#	150
#	13260
#	27645
#	43396
#	59620
#	70564
#	84267
#	101801
#	117357
#	131498
#	143424
#	154988
#
# Disc length: 2258 seconds
#
# Revision: 0
# Processed by: cddbd v1.5.1PL0 Copyright (c) Steve Scherf et al.
# Submitted via: CDex 1.51
#
DISCID=a808d00c
DTITLE=Art Tatum - Alone
DYEAR=1964
DGENRE=Jazz
TTITLE0=Begin The Beguine
TTITLE1=Willow Weep For Me
TTITLE2=Someone To Watch Over Me
TTITLE3=Too Marvellous For Words
TTITLE4=Body And Soul
TTITLE5=Danny Boy
TTITLE6=Tenderly
TTITLE7=I'll Never Be The Same
TTITLE8=You Took Advantage Of Me
TTITLE9=Without A Song
TTITLE10=Yesterdays
TTITLE11=Little Man You've Had A Busy Day
EXTD=YEAR: 1964
EXTT0=
EXTT1=
EXTT2=
EXTT3=
EXTT4=
EXTT5=
EXTT6=
EXTT7=
EXTT8=
EXTT9=
EXTT10=
EXTT11=
PLAYORDER=
